<svg xmlns="http://www.w3.org/2000/svg" width="1622" height="1002" viewBox="0 0 1622 1002"><rect x="0" y="0" width="1622" height="1002" fill="#ffffff"/><rect x="0.0" y="0.0" width="1622.0" height="78.0" rx="0" stroke="none" fill="#f2f2f0" stroke-width="1.5"/><line x1="0.0" y1="78.0" x2="1622.0" y2="78.0" stroke="#c9c9c9" stroke-width="1" stroke-linecap="round"/><text x="28.0" y="34.0" font-family="Helvetica Neue, Helvetica, Arial, sans-serif" font-size="21" fill="#1a1a1a" text-anchor="start" font-weight="bold" letter-spacing="0.5">JETSON — HD34-18-20PN · internal Y-split pigtail</text><text x="28.0" y="58.0" font-family="Helvetica Neue, Helvetica, Arial, sans-serif" font-size="12.5" fill="#555" text-anchor="start" font-weight="normal">insert 18-20 · 2× size 16 + 18× size 20 · N seal (green) · cavity IDs per TE 0425-013-1800 rev D</text><text x="1594.0" y="34.0" font-family="Helvetica Neue, Helvetica, Arial, sans-serif" font-size="13" fill="#444" text-anchor="end" font-weight="bold">Crewline V3.2 enclosure</text><text x="1594.0" y="56.0" font-family="Helvetica Neue, Helvetica, Arial, sans-serif" font-size="12" fill="#666" text-anchor="end" font-weight="normal">2026-08-22</text><text x="178.0" y="148.0" font-family="Helvetica Neue, Helvetica, Arial, sans-serif" font-size="12" fill="#444" text-anchor="middle" font-weight="bold">REAR VIEW (wire side)</text><circle cx="178.0" cy="271.6" r="107.6" stroke="#9a9a9a" fill="#fbfbfa" stroke-width="2.2"/><circle cx="178.0" cy="271.6" r="95.6" stroke="#c0c0c0" fill="#ffffff" stroke-width="1.2"/><circle cx="178.0" cy="191.5" r="13.4" stroke="#1a1a1a" fill="#ffffff" stroke-width="1.7"/><circle cx="178.0" cy="191.5" r="4.3" stroke="#999" fill="none" stroke-width="1.0"/><text x="178.0" y="195.6" font-family="Helvetica Neue, Helvetica, Arial, sans-serif" font-size="11.424000000000001" fill="#1a1a1a" text-anchor="middle" font-weight="bold">9</text><circle cx="141.8" cy="200.1" r="13.4" stroke="#1a1a1a" fill="#ffffff" stroke-width="1.7"/><circle cx="141.8" cy="200.1" r="4.3" stroke="#999" fill="none" stroke-width="1.0"/><text x="141.8" y="203.5" font-family="Helvetica Neue, Helvetica, Arial, sans-serif" font-size="9.408" fill="#1a1a1a" text-anchor="middle" font-weight="bold">10</text><circle cx="214.2" cy="200.1" r="13.4" stroke="#1a1a1a" fill="#ffffff" stroke-width="1.7"/><circle cx="214.2" cy="200.1" r="4.3" stroke="#999" fill="none" stroke-width="1.0"/><text x="214.2" y="204.2" font-family="Helvetica Neue, Helvetica, Arial, sans-serif" font-size="11.424000000000001" fill="#1a1a1a" text-anchor="middle" font-weight="bold">8</text><circle cx="113.5" cy="224.1" r="13.4" stroke="#1a1a1a" fill="#ffffff" stroke-width="1.7"/><circle cx="113.5" cy="224.1" r="4.3" stroke="#999" fill="none" stroke-width="1.0"/><text x="113.5" y="227.5" font-family="Helvetica Neue, Helvetica, Arial, sans-serif" font-size="9.408" fill="#1a1a1a" text-anchor="middle" font-weight="bold">11</text><circle cx="242.5" cy="224.1" r="13.4" stroke="#1a1a1a" fill="#ffffff" stroke-width="1.7"/><circle cx="242.5" cy="224.1" r="4.3" stroke="#999" fill="none" stroke-width="1.0"/><text x="242.5" y="227.5" font-family="Helvetica Neue, Helvetica, Arial, sans-serif" font-size="9.408" fill="#1a1a1a" text-anchor="middle" font-weight="bold">20</text><circle cx="156.7" cy="237.0" r="13.4" stroke="#1a1a1a" fill="#ffffff" stroke-width="1.7"/><circle cx="156.7" cy="237.0" r="4.3" stroke="#999" fill="none" stroke-width="1.0"/><text x="156.7" y="241.2" font-family="Helvetica Neue, Helvetica, Arial, sans-serif" font-size="11.424000000000001" fill="#1a1a1a" text-anchor="middle" font-weight="bold">2</text><circle cx="199.3" cy="237.0" r="13.4" stroke="#1a1a1a" fill="#ffffff" stroke-width="1.7"/><circle cx="199.3" cy="237.0" r="4.3" stroke="#999" fill="none" stroke-width="1.0"/><text x="199.3" y="241.2" font-family="Helvetica Neue, Helvetica, Arial, sans-serif" font-size="11.424000000000001" fill="#1a1a1a" text-anchor="middle" font-weight="bold">7</text><circle cx="98.9" cy="258.6" r="13.4" stroke="#1a1a1a" fill="#ffffff" stroke-width="1.7"/><circle cx="98.9" cy="258.6" r="4.3" stroke="#999" fill="none" stroke-width="1.0"/><text x="98.9" y="261.9" font-family="Helvetica Neue, Helvetica, Arial, sans-serif" font-size="9.408" fill="#1a1a1a" text-anchor="middle" font-weight="bold">12</text><circle cx="257.1" cy="258.6" r="13.4" stroke="#1a1a1a" fill="#ffffff" stroke-width="1.7"/><circle cx="257.1" cy="258.6" r="4.3" stroke="#999" fill="none" stroke-width="1.0"/><text x="257.1" y="261.9" font-family="Helvetica Neue, Helvetica, Arial, sans-serif" font-size="9.408" fill="#1a1a1a" text-anchor="middle" font-weight="bold">19</text><circle cx="136.8" cy="276.5" r="18.1" stroke="#1a1a1a" fill="#ffffff" stroke-width="1.7"/><circle cx="136.8" cy="276.5" r="6.6" stroke="#999" fill="none" stroke-width="1.0"/><text x="136.8" y="281.7" font-family="Helvetica Neue, Helvetica, Arial, sans-serif" font-size="14.5" fill="#1a1a1a" text-anchor="middle" font-weight="bold">3</text><circle cx="219.2" cy="276.5" r="18.1" stroke="#1a1a1a" fill="#ffffff" stroke-width="1.7"/><circle cx="219.2" cy="276.5" r="6.6" stroke="#999" fill="none" stroke-width="1.0"/><text x="219.2" y="281.7" font-family="Helvetica Neue, Helvetica, Arial, sans-serif" font-size="14.5" fill="#1a1a1a" text-anchor="middle" font-weight="bold">6</text><circle cx="178.0" cy="271.6" r="13.4" stroke="#1a1a1a" fill="#ffffff" stroke-width="1.7"/><circle cx="178.0" cy="271.6" r="4.3" stroke="#999" fill="none" stroke-width="1.0"/><text x="178.0" y="275.7" font-family="Helvetica Neue, Helvetica, Arial, sans-serif" font-size="11.424000000000001" fill="#1a1a1a" text-anchor="middle" font-weight="bold">1</text><circle cx="104.4" cy="302.7" r="13.4" stroke="#1a1a1a" fill="#ffffff" stroke-width="1.7"/><circle cx="104.4" cy="302.7" r="4.3" stroke="#999" fill="none" stroke-width="1.0"/><text x="104.4" y="306.0" font-family="Helvetica Neue, Helvetica, Arial, sans-serif" font-size="9.408" fill="#1a1a1a" text-anchor="middle" font-weight="bold">13</text><circle cx="251.6" cy="302.7" r="13.4" stroke="#1a1a1a" fill="#ffffff" stroke-width="1.7"/><circle cx="251.6" cy="302.7" r="4.3" stroke="#999" fill="none" stroke-width="1.0"/><text x="251.6" y="306.0" font-family="Helvetica Neue, Helvetica, Arial, sans-serif" font-size="9.408" fill="#1a1a1a" text-anchor="middle" font-weight="bold">18</text><circle cx="159.0" cy="311.9" r="13.4" stroke="#1a1a1a" fill="#ffffff" stroke-width="1.7"/><circle cx="159.0" cy="311.9" r="4.3" stroke="#999" fill="none" stroke-width="1.0"/><text x="159.0" y="316.0" font-family="Helvetica Neue, Helvetica, Arial, sans-serif" font-size="11.424000000000001" fill="#1a1a1a" text-anchor="middle" font-weight="bold">4</text><circle cx="197.0" cy="311.9" r="13.4" stroke="#1a1a1a" fill="#ffffff" stroke-width="1.7"/><circle cx="197.0" cy="311.9" r="4.3" stroke="#999" fill="none" stroke-width="1.0"/><text x="197.0" y="316.0" font-family="Helvetica Neue, Helvetica, Arial, sans-serif" font-size="11.424000000000001" fill="#1a1a1a" text-anchor="middle" font-weight="bold">5</text><circle cx="126.4" cy="332.6" r="13.4" stroke="#1a1a1a" fill="#ffffff" stroke-width="1.7"/><circle cx="126.4" cy="332.6" r="4.3" stroke="#999" fill="none" stroke-width="1.0"/><text x="126.4" y="336.0" font-family="Helvetica Neue, Helvetica, Arial, sans-serif" font-size="9.408" fill="#1a1a1a" text-anchor="middle" font-weight="bold">14</text><circle cx="229.6" cy="332.6" r="13.4" stroke="#1a1a1a" fill="#ffffff" stroke-width="1.7"/><circle cx="229.6" cy="332.6" r="4.3" stroke="#999" fill="none" stroke-width="1.0"/><text x="229.6" y="336.0" font-family="Helvetica Neue, Helvetica, Arial, sans-serif" font-size="9.408" fill="#1a1a1a" text-anchor="middle" font-weight="bold">17</text><circle cx="159.4" cy="349.6" r="13.4" stroke="#1a1a1a" fill="#ffffff" stroke-width="1.7"/><circle cx="159.4" cy="349.6" r="4.3" stroke="#999" fill="none" stroke-width="1.0"/><text x="159.4" y="353.0" font-family="Helvetica Neue, Helvetica, Arial, sans-serif" font-size="9.408" fill="#1a1a1a" text-anchor="middle" font-weight="bold">15</text><circle cx="196.6" cy="349.6" r="13.4" stroke="#1a1a1a" fill="#ffffff" stroke-width="1.7"/><circle cx="196.6" cy="349.6" r="4.3" stroke="#999" fill="none" stroke-width="1.0"/><text x="196.6" y="353.0" font-family="Helvetica Neue, Helvetica, Arial, sans-serif" font-size="9.408" fill="#1a1a1a" text-anchor="middle" font-weight="bold">16</text><text x="178.0" y="399.2" font-family="Helvetica Neue, Helvetica, Arial, sans-serif" font-size="10.5" fill="#8a8a8a" text-anchor="middle" font-weight="normal">as seen from inside enclosure</text><text x="64.0" y="427.2" font-family="Helvetica Neue, Helvetica, Arial, sans-serif" font-size="11" fill="#444" text-anchor="start" font-weight="bold" letter-spacing="1">LEGEND</text><line x1="64.0" y1="443.2" x2="96.0" y2="443.2" stroke="#c62828" stroke-width="3" stroke-linecap="round"/><text x="104.0" y="447.2" font-family="Helvetica Neue, Helvetica, Arial, sans-serif" font-size="11" fill="#333" text-anchor="start" font-weight="normal">power +13 V / BAT+</text><line x1="64.0" y1="462.2" x2="96.0" y2="462.2" stroke="#212121" stroke-width="3" stroke-linecap="round"/><text x="104.0" y="466.2" font-family="Helvetica Neue, Helvetica, Arial, sans-serif" font-size="11" fill="#333" text-anchor="start" font-weight="normal">ground / return</text><line x1="64.0" y1="481.2" x2="96.0" y2="481.2" stroke="#c8901c" stroke-width="3" stroke-linecap="round"/><text x="104.0" y="485.2" font-family="Helvetica Neue, Helvetica, Arial, sans-serif" font-size="11" fill="#333" text-anchor="start" font-weight="normal">CAN H</text><line x1="64.0" y1="500.2" x2="96.0" y2="500.2" stroke="#2e7d32" stroke-width="3" stroke-linecap="round"/><text x="104.0" y="504.2" font-family="Helvetica Neue, Helvetica, Arial, sans-serif" font-size="11" fill="#333" text-anchor="start" font-weight="normal">CAN L</text><line x1="64.0" y1="519.2" x2="96.0" y2="519.2" stroke="#757575" stroke-width="3" stroke-linecap="round"/><text x="104.0" y="523.2" font-family="Helvetica Neue, Helvetica, Arial, sans-serif" font-size="11" fill="#333" text-anchor="start" font-weight="normal">signal</text><line x1="636.0" y1="366.0" x2="636.0" y2="625.0" stroke="#444" stroke-width="2.2" stroke-linecap="round"/><line x1="641.0" y1="366.0" x2="641.0" y2="625.0" stroke="#444" stroke-width="2.2" stroke-linecap="round"/><text x="618.0" y="356.0" font-family="Helvetica Neue, Helvetica, Arial, sans-serif" font-size="11.5" fill="#444" text-anchor="middle" font-weight="bold">Y-fork</text><rect x="372.0" y="151.0" width="52.0" height="22.0" rx="4" stroke="#888" fill="#fff" stroke-width="1.2"/><text x="398.0" y="166.0" font-family="Menlo, Consolas, monospace" font-size="12" fill="#1a1a1a" text-anchor="middle" font-weight="bold">3</text><path d="M 424 162 C 470 162 510 372.0 596 372.0 L 640 372.0 C 685 372.0 705 162 745 162 L 1330 162" stroke="#c62828" stroke-width="2.0" fill="none" stroke-linecap="round" stroke-linejoin="round"/><text x="770.0" y="156.0" font-family="Helvetica Neue, Helvetica, Arial, sans-serif" font-size="11.5" fill="#333" text-anchor="start" font-weight="normal">JET_13V (FH2 7.5A) · 18 AWG</text><rect x="372.0" y="181.0" width="52.0" height="22.0" rx="4" stroke="#888" fill="#fff" stroke-width="1.2"/><text x="398.0" y="196.0" font-family="Menlo, Consolas, monospace" font-size="12" fill="#1a1a1a" text-anchor="middle" font-weight="bold">7</text><path d="M 424 192 C 470 192 510 385.0 596 385.0 L 640 385.0 C 685 385.0 705 192 745 192 L 1330 192" stroke="#c62828" stroke-width="2.0" fill="none" stroke-linecap="round" stroke-linejoin="round"/><text x="770.0" y="186.0" font-family="Helvetica Neue, Helvetica, Arial, sans-serif" font-size="11.5" fill="#333" text-anchor="start" font-weight="normal">DIO_PWR (FH3 2A) · 20 AWG</text><rect x="372.0" y="211.0" width="52.0" height="22.0" rx="4" stroke="#888" fill="#fff" stroke-width="1.2"/><text x="398.0" y="226.0" font-family="Menlo, Consolas, monospace" font-size="12" fill="#1a1a1a" text-anchor="middle" font-weight="bold">6</text><path d="M 424 222 C 470 222 510 398.0 596 398.0 L 640 398.0 C 685 398.0 705 222 745 222 L 1330 222" stroke="#212121" stroke-width="2.0" fill="none" stroke-linecap="round" stroke-linejoin="round"/><text x="770.0" y="216.0" font-family="Helvetica Neue, Helvetica, Arial, sans-serif" font-size="11.5" fill="#333" text-anchor="start" font-weight="normal">JET_GND · 18 AWG</text><rect x="372.0" y="241.0" width="52.0" height="22.0" rx="4" stroke="#888" fill="#fff" stroke-width="1.2"/><text x="398.0" y="256.0" font-family="Menlo, Consolas, monospace" font-size="12" fill="#1a1a1a" text-anchor="middle" font-weight="bold">8</text><path d="M 424 252 C 470 252 510 411.0 596 411.0 L 640 411.0 C 685 411.0 705 252 745 252 L 1330 252" stroke="#212121" stroke-width="2.0" fill="none" stroke-linecap="round" stroke-linejoin="round"/><text x="770.0" y="246.0" font-family="Helvetica Neue, Helvetica, Arial, sans-serif" font-size="11.5" fill="#333" text-anchor="start" font-weight="normal">DIO_GND · 20 AWG</text><rect x="372.0" y="368.0" width="52.0" height="22.0" rx="4" stroke="#888" fill="#fff" stroke-width="1.2"/><text x="398.0" y="383.0" font-family="Menlo, Consolas, monospace" font-size="12" fill="#1a1a1a" text-anchor="middle" font-weight="bold">1</text><path d="M 424 379 C 470 379 510 424.0 596 424.0 L 640 424.0 C 685 424.0 705 379 745 379 L 998 379" stroke="#c8901c" stroke-width="2.0" fill="none" stroke-linecap="round" stroke-linejoin="round"/><text x="770.0" y="373.0" font-family="Helvetica Neue, Helvetica, Arial, sans-serif" font-size="11.5" fill="#333" text-anchor="start" font-weight="normal">JET_CAN1_H · 20 AWG (tw)</text><rect x="372.0" y="398.0" width="52.0" height="22.0" rx="4" stroke="#888" fill="#fff" stroke-width="1.2"/><text x="398.0" y="413.0" font-family="Menlo, Consolas, monospace" font-size="12" fill="#1a1a1a" text-anchor="middle" font-weight="bold">2</text><path d="M 424 409 C 470 409 510 437.0 596 437.0 L 640 437.0 C 685 437.0 705 409 745 409 L 998 409" stroke="#2e7d32" stroke-width="2.0" fill="none" stroke-linecap="round" stroke-linejoin="round"/><text x="770.0" y="403.0" font-family="Helvetica Neue, Helvetica, Arial, sans-serif" font-size="11.5" fill="#333" text-anchor="start" font-weight="normal">JET_CAN1_L · 20 AWG (tw)</text><rect x="372.0" y="428.0" width="52.0" height="22.0" rx="4" stroke="#888" fill="#fff" stroke-width="1.2"/><text x="398.0" y="443.0" font-family="Menlo, Consolas, monospace" font-size="12" fill="#1a1a1a" text-anchor="middle" font-weight="bold">4</text><path d="M 424 439 C 470 439 510 450.0 596 450.0 L 640 450.0 C 685 450.0 705 439 745 439 L 998 439" stroke="#c8901c" stroke-width="2.0" fill="none" stroke-linecap="round" stroke-linejoin="round"/><text x="770.0" y="433.0" font-family="Helvetica Neue, Helvetica, Arial, sans-serif" font-size="11.5" fill="#333" text-anchor="start" font-weight="normal">JET_CAN2_H · 20 AWG (tw)</text><rect x="372.0" y="458.0" width="52.0" height="22.0" rx="4" stroke="#888" fill="#fff" stroke-width="1.2"/><text x="398.0" y="473.0" font-family="Menlo, Consolas, monospace" font-size="12" fill="#1a1a1a" text-anchor="middle" font-weight="bold">5</text><path d="M 424 469 C 470 469 510 463.0 596 463.0 L 640 463.0 C 685 463.0 705 469 745 469 L 998 469" stroke="#2e7d32" stroke-width="2.0" fill="none" stroke-linecap="round" stroke-linejoin="round"/><text x="770.0" y="463.0" font-family="Helvetica Neue, Helvetica, Arial, sans-serif" font-size="11.5" fill="#333" text-anchor="start" font-weight="normal">JET_CAN2_L · 20 AWG (tw)</text><rect x="372.0" y="488.0" width="52.0" height="22.0" rx="4" stroke="#888" fill="#fff" stroke-width="1.2"/><text x="398.0" y="503.0" font-family="Menlo, Consolas, monospace" font-size="12" fill="#1a1a1a" text-anchor="middle" font-weight="bold">9</text><path d="M 424 499 C 470 499 510 476.0 596 476.0 L 640 476.0 C 685 476.0 705 499 745 499 L 1330 499" stroke="#757575" stroke-width="2.0" fill="none" stroke-linecap="round" stroke-linejoin="round"/><text x="770.0" y="493.0" font-family="Helvetica Neue, Helvetica, Arial, sans-serif" font-size="11.5" fill="#333" text-anchor="start" font-weight="normal">DIO_OUT_AUTONOMY (hi = on) · 20 AWG</text><rect x="372.0" y="518.0" width="52.0" height="22.0" rx="4" stroke="#888" fill="#fff" stroke-width="1.2"/><text x="398.0" y="533.0" font-family="Menlo, Consolas, monospace" font-size="12" fill="#1a1a1a" text-anchor="middle" font-weight="bold">10</text><path d="M 424 529 C 470 529 510 489.0 596 489.0 L 640 489.0 C 685 489.0 705 529 745 529 L 1330 529" stroke="#757575" stroke-width="2.0" fill="none" stroke-linecap="round" stroke-linejoin="round"/><text x="770.0" y="523.0" font-family="Helvetica Neue, Helvetica, Arial, sans-serif" font-size="11.5" fill="#333" text-anchor="start" font-weight="normal">DIO_OUT_BRAKE (lo = engaged) · 20 AWG</text><rect x="372.0" y="548.0" width="52.0" height="22.0" rx="4" stroke="#888" fill="#fff" stroke-width="1.2"/><text x="398.0" y="563.0" font-family="Menlo, Consolas, monospace" font-size="12" fill="#1a1a1a" text-anchor="middle" font-weight="bold">11</text><path d="M 424 559 C 470 559 510 502.0 596 502.0 L 640 502.0 C 685 502.0 705 559 745 559 L 1330 559" stroke="#757575" stroke-width="2.0" fill="none" stroke-linecap="round" stroke-linejoin="round"/><text x="770.0" y="553.0" font-family="Helvetica Neue, Helvetica, Arial, sans-serif" font-size="11.5" fill="#333" text-anchor="start" font-weight="normal">GPIO_SPARE · 20 AWG</text><rect x="372.0" y="578.0" width="52.0" height="22.0" rx="4" stroke="#888" fill="#fff" stroke-width="1.2"/><text x="398.0" y="593.0" font-family="Menlo, Consolas, monospace" font-size="12" fill="#1a1a1a" text-anchor="middle" font-weight="bold">12</text><path d="M 424 589 C 470 589 510 515.0 596 515.0 L 640 515.0 C 685 515.0 705 589 745 589 L 1330 589" stroke="#757575" stroke-width="2.0" fill="none" stroke-linecap="round" stroke-linejoin="round"/><text x="770.0" y="583.0" font-family="Helvetica Neue, Helvetica, Arial, sans-serif" font-size="11.5" fill="#333" text-anchor="start" font-weight="normal">SEAT_STATE (DIO in) · 20 AWG</text><rect x="372.0" y="608.0" width="52.0" height="22.0" rx="4" stroke="#888" fill="#fff" stroke-width="1.2"/><text x="398.0" y="623.0" font-family="Menlo, Consolas, monospace" font-size="12" fill="#1a1a1a" text-anchor="middle" font-weight="bold">16</text><path d="M 424 619 C 470 619 510 528.0 596 528.0 L 640 528.0 C 685 528.0 705 619 745 619 L 1330 619" stroke="#757575" stroke-width="2.0" fill="none" stroke-linecap="round" stroke-linejoin="round"/><text x="770.0" y="613.0" font-family="Helvetica Neue, Helvetica, Arial, sans-serif" font-size="11.5" fill="#333" text-anchor="start" font-weight="normal">SDA · 20 AWG</text><rect x="372.0" y="638.0" width="52.0" height="22.0" rx="4" stroke="#888" fill="#fff" stroke-width="1.2"/><text x="398.0" y="653.0" font-family="Menlo, Consolas, monospace" font-size="12" fill="#1a1a1a" text-anchor="middle" font-weight="bold">17</text><path d="M 424 649 C 470 649 510 541.0 596 541.0 L 640 541.0 C 685 541.0 705 649 745 649 L 1330 649" stroke="#757575" stroke-width="2.0" fill="none" stroke-linecap="round" stroke-linejoin="round"/><text x="770.0" y="643.0" font-family="Helvetica Neue, Helvetica, Arial, sans-serif" font-size="11.5" fill="#333" text-anchor="start" font-weight="normal">SCL · 20 AWG</text><rect x="372.0" y="668.0" width="52.0" height="22.0" rx="4" stroke="#888" fill="#fff" stroke-width="1.2"/><text x="398.0" y="683.0" font-family="Menlo, Consolas, monospace" font-size="12" fill="#1a1a1a" text-anchor="middle" font-weight="bold">18</text><path d="M 424 679 C 470 679 510 554.0 596 554.0 L 640 554.0 C 685 554.0 705 679 745 679 L 1330 679" stroke="#757575" stroke-width="2.0" fill="none" stroke-linecap="round" stroke-linejoin="round"/><text x="770.0" y="673.0" font-family="Helvetica Neue, Helvetica, Arial, sans-serif" font-size="11.5" fill="#333" text-anchor="start" font-weight="normal">ALERT_N · 20 AWG</text><rect x="372.0" y="698.0" width="52.0" height="22.0" rx="4" stroke="#888" fill="#fff" stroke-width="1.2"/><text x="398.0" y="713.0" font-family="Menlo, Consolas, monospace" font-size="12" fill="#1a1a1a" text-anchor="middle" font-weight="bold">19</text><path d="M 424 709 C 470 709 510 567.0 596 567.0 L 640 567.0 C 685 567.0 705 709 745 709 L 1330 709" stroke="#757575" stroke-width="2.0" fill="none" stroke-linecap="round" stroke-linejoin="round"/><text x="770.0" y="703.0" font-family="Helvetica Neue, Helvetica, Arial, sans-serif" font-size="11.5" fill="#333" text-anchor="start" font-weight="normal">V3_HOST (3V3 sense) · 20 AWG</text><rect x="372.0" y="728.0" width="52.0" height="22.0" rx="4" stroke="#888" fill="#fff" stroke-width="1.2"/><text x="398.0" y="743.0" font-family="Menlo, Consolas, monospace" font-size="12" fill="#1a1a1a" text-anchor="middle" font-weight="bold">20</text><path d="M 424 739 C 470 739 510 580.0 596 580.0 L 640 580.0 C 685 580.0 705 739 745 739 L 1330 739" stroke="#212121" stroke-width="2.0" fill="none" stroke-linecap="round" stroke-linejoin="round"/><text x="770.0" y="733.0" font-family="Helvetica Neue, Helvetica, Arial, sans-serif" font-size="11.5" fill="#333" text-anchor="start" font-weight="normal">SIG_GND · 20 AWG</text><rect x="372.0" y="758.0" width="52.0" height="22.0" rx="4" stroke="#888" fill="#fff" stroke-width="1.2"/><text x="398.0" y="773.0" font-family="Menlo, Consolas, monospace" font-size="12" fill="#1a1a1a" text-anchor="middle" font-weight="bold">13</text><path d="M 424 769 C 470 769 510 593.0 596 593.0 L 640 593.0 C 685 593.0 705 769 745 769 L 1330 769" stroke="#757575" stroke-width="2.0" fill="none" stroke-linecap="round" stroke-linejoin="round"/><text x="770.0" y="763.0" font-family="Helvetica Neue, Helvetica, Arial, sans-serif" font-size="11.5" fill="#333" text-anchor="start" font-weight="normal">ARM_SENSE (DIO in) · 20 AWG</text><rect x="372.0" y="788.0" width="52.0" height="22.0" rx="4" stroke="#888" fill="#fff" stroke-width="1.2"/><text x="398.0" y="803.0" font-family="Menlo, Consolas, monospace" font-size="12" fill="#1a1a1a" text-anchor="middle" font-weight="bold">14</text><path d="M 424 799 C 470 799 510 606.0 596 606.0 L 640 606.0 C 685 606.0 705 799 745 799 L 1330 799" stroke="#757575" stroke-width="2.0" fill="none" stroke-linecap="round" stroke-linejoin="round"/><text x="770.0" y="793.0" font-family="Helvetica Neue, Helvetica, Arial, sans-serif" font-size="11.5" fill="#333" text-anchor="start" font-weight="normal">BRAKE_SENSE (DIO in) · 20 AWG</text><rect x="372.0" y="818.0" width="52.0" height="22.0" rx="4" stroke="#888" fill="#fff" stroke-width="1.2"/><text x="398.0" y="833.0" font-family="Menlo, Consolas, monospace" font-size="12" fill="#1a1a1a" text-anchor="middle" font-weight="bold">15</text><path d="M 424 829 C 470 829 510 619.0 596 619.0 L 640 619.0 C 685 619.0 705 829 745 829 L 1330 829" stroke="#757575" stroke-width="2.0" fill="none" stroke-linecap="round" stroke-linejoin="round"/><text x="770.0" y="823.0" font-family="Helvetica Neue, Helvetica, Arial, sans-serif" font-size="11.5" fill="#333" text-anchor="start" font-weight="normal">IGN_SENSE (DIO in) · 20 AWG</text><path d="M 998 379 C 1053.3333333333333 379 1053.3333333333333 409 1108.6666666666667 409 C 1164.0 409 1164.0 379 1219.3333333333333 379 L 1330 379" stroke="#c8901c" stroke-width="2.0" fill="none" stroke-linecap="round" stroke-linejoin="round"/><path d="M 998 409 C 1053.3333333333333 409 1053.3333333333333 379 1108.6666666666667 379 C 1164.0 379 1164.0 409 1219.3333333333333 409 L 1330 409" stroke="#2e7d32" stroke-width="2.0" fill="none" stroke-linecap="round" stroke-linejoin="round"/><text x="1108.7" y="397.5" font-family="Helvetica Neue, Helvetica, Arial, sans-serif" font-size="9" fill="#8a8a8a" text-anchor="middle" font-weight="normal">tw</text><path d="M 998 439 C 1053.3333333333333 439 1053.3333333333333 469 1108.6666666666667 469 C 1164.0 469 1164.0 439 1219.3333333333333 439 L 1330 439" stroke="#c8901c" stroke-width="2.0" fill="none" stroke-linecap="round" stroke-linejoin="round"/><path d="M 998 469 C 1053.3333333333333 469 1053.3333333333333 439 1108.6666666666667 439 C 1164.0 439 1164.0 469 1219.3333333333333 469 L 1330 469" stroke="#2e7d32" stroke-width="2.0" fill="none" stroke-linecap="round" stroke-linejoin="round"/><text x="1108.7" y="457.5" font-family="Helvetica Neue, Helvetica, Arial, sans-serif" font-size="9" fill="#8a8a8a" text-anchor="middle" font-weight="normal">tw</text><text x="751.0" y="136.0" font-family="Helvetica Neue, Helvetica, Arial, sans-serif" font-size="12.5" fill="#7a1414" text-anchor="start" font-weight="bold" letter-spacing="1">POWER LEG</text><text x="751.0" y="353.0" font-family="Helvetica Neue, Helvetica, Arial, sans-serif" font-size="12.5" fill="#3a3a6a" text-anchor="start" font-weight="bold" letter-spacing="1">SIGNAL LEG</text><rect x="1330.0" y="104.0" width="262.0" height="181.0" rx="8" stroke="#555" fill="#fafaf8" stroke-width="1.8"/><text x="1342.0" y="126.0" font-family="Helvetica Neue, Helvetica, Arial, sans-serif" font-size="12.5" fill="#1a1a1a" text-anchor="start" font-weight="bold">J_JP · Mini-Fit Jr 4</text><text x="1342.0" y="144.0" font-family="Helvetica Neue, Helvetica, Arial, sans-serif" font-size="10" fill="#666" text-anchor="start" font-weight="normal">PWR board · mate 39-01-2040</text><text x="1342.0" y="278.0" font-family="Helvetica Neue, Helvetica, Arial, sans-serif" font-size="9.5" fill="#8a8a8a" text-anchor="start" font-weight="normal">4/4 — pins 2/4 = isolated DIO bank supply</text><line x1="1328.0" y1="162.0" x2="1337.0" y2="162.0" stroke="#555" stroke-width="2" stroke-linecap="round"/><text x="1344.0" y="166.0" font-family="Menlo, Consolas, monospace" font-size="11" fill="#222" text-anchor="start" font-weight="bold">1</text><line x1="1328.0" y1="192.0" x2="1337.0" y2="192.0" stroke="#555" stroke-width="2" stroke-linecap="round"/><text x="1344.0" y="196.0" font-family="Menlo, Consolas, monospace" font-size="11" fill="#222" text-anchor="start" font-weight="bold">2</text><line x1="1328.0" y1="222.0" x2="1337.0" y2="222.0" stroke="#555" stroke-width="2" stroke-linecap="round"/><text x="1344.0" y="226.0" font-family="Menlo, Consolas, monospace" font-size="11" fill="#222" text-anchor="start" font-weight="bold">3</text><line x1="1328.0" y1="252.0" x2="1337.0" y2="252.0" stroke="#555" stroke-width="2" stroke-linecap="round"/><text x="1344.0" y="256.0" font-family="Menlo, Consolas, monospace" font-size="11" fill="#222" text-anchor="start" font-weight="bold">4</text><rect x="1330.0" y="321.0" width="262.0" height="541.0" rx="8" stroke="#555" fill="#fafaf8" stroke-width="1.8"/><text x="1342.0" y="343.0" font-family="Helvetica Neue, Helvetica, Arial, sans-serif" font-size="12.5" fill="#1a1a1a" text-anchor="start" font-weight="bold">J_JS · Micro-Fit 16</text><text x="1342.0" y="361.0" font-family="Helvetica Neue, Helvetica, Arial, sans-serif" font-size="10" fill="#666" text-anchor="start" font-weight="normal">IFB · mate 43025-1600</text><text x="1342.0" y="855.0" font-family="Helvetica Neue, Helvetica, Arial, sans-serif" font-size="9.5" fill="#8a8a8a" text-anchor="start" font-weight="normal">16/16 — no spares</text><line x1="1328.0" y1="379.0" x2="1337.0" y2="379.0" stroke="#555" stroke-width="2" stroke-linecap="round"/><text x="1344.0" y="383.0" font-family="Menlo, Consolas, monospace" font-size="11" fill="#222" text-anchor="start" font-weight="bold">1</text><line x1="1328.0" y1="409.0" x2="1337.0" y2="409.0" stroke="#555" stroke-width="2" stroke-linecap="round"/><text x="1344.0" y="413.0" font-family="Menlo, Consolas, monospace" font-size="11" fill="#222" text-anchor="start" font-weight="bold">2</text><line x1="1328.0" y1="439.0" x2="1337.0" y2="439.0" stroke="#555" stroke-width="2" stroke-linecap="round"/><text x="1344.0" y="443.0" font-family="Menlo, Consolas, monospace" font-size="11" fill="#222" text-anchor="start" font-weight="bold">3</text><line x1="1328.0" y1="469.0" x2="1337.0" y2="469.0" stroke="#555" stroke-width="2" stroke-linecap="round"/><text x="1344.0" y="473.0" font-family="Menlo, Consolas, monospace" font-size="11" fill="#222" text-anchor="start" font-weight="bold">4</text><line x1="1328.0" y1="499.0" x2="1337.0" y2="499.0" stroke="#555" stroke-width="2" stroke-linecap="round"/><text x="1344.0" y="503.0" font-family="Menlo, Consolas, monospace" font-size="11" fill="#222" text-anchor="start" font-weight="bold">5</text><line x1="1328.0" y1="529.0" x2="1337.0" y2="529.0" stroke="#555" stroke-width="2" stroke-linecap="round"/><text x="1344.0" y="533.0" font-family="Menlo, Consolas, monospace" font-size="11" fill="#222" text-anchor="start" font-weight="bold">6</text><line x1="1328.0" y1="559.0" x2="1337.0" y2="559.0" stroke="#555" stroke-width="2" stroke-linecap="round"/><text x="1344.0" y="563.0" font-family="Menlo, Consolas, monospace" font-size="11" fill="#222" text-anchor="start" font-weight="bold">7</text><line x1="1328.0" y1="589.0" x2="1337.0" y2="589.0" stroke="#555" stroke-width="2" stroke-linecap="round"/><text x="1344.0" y="593.0" font-family="Menlo, Consolas, monospace" font-size="11" fill="#222" text-anchor="start" font-weight="bold">8</text><line x1="1328.0" y1="619.0" x2="1337.0" y2="619.0" stroke="#555" stroke-width="2" stroke-linecap="round"/><text x="1344.0" y="623.0" font-family="Menlo, Consolas, monospace" font-size="11" fill="#222" text-anchor="start" font-weight="bold">9</text><line x1="1328.0" y1="649.0" x2="1337.0" y2="649.0" stroke="#555" stroke-width="2" stroke-linecap="round"/><text x="1344.0" y="653.0" font-family="Menlo, Consolas, monospace" font-size="11" fill="#222" text-anchor="start" font-weight="bold">10</text><line x1="1328.0" y1="679.0" x2="1337.0" y2="679.0" stroke="#555" stroke-width="2" stroke-linecap="round"/><text x="1344.0" y="683.0" font-family="Menlo, Consolas, monospace" font-size="11" fill="#222" text-anchor="start" font-weight="bold">11</text><line x1="1328.0" y1="709.0" x2="1337.0" y2="709.0" stroke="#555" stroke-width="2" stroke-linecap="round"/><text x="1344.0" y="713.0" font-family="Menlo, Consolas, monospace" font-size="11" fill="#222" text-anchor="start" font-weight="bold">12</text><line x1="1328.0" y1="739.0" x2="1337.0" y2="739.0" stroke="#555" stroke-width="2" stroke-linecap="round"/><text x="1344.0" y="743.0" font-family="Menlo, Consolas, monospace" font-size="11" fill="#222" text-anchor="start" font-weight="bold">13</text><line x1="1328.0" y1="769.0" x2="1337.0" y2="769.0" stroke="#555" stroke-width="2" stroke-linecap="round"/><text x="1344.0" y="773.0" font-family="Menlo, Consolas, monospace" font-size="11" fill="#222" text-anchor="start" font-weight="bold">14</text><line x1="1328.0" y1="799.0" x2="1337.0" y2="799.0" stroke="#555" stroke-width="2" stroke-linecap="round"/><text x="1344.0" y="803.0" font-family="Menlo, Consolas, monospace" font-size="11" fill="#222" text-anchor="start" font-weight="bold">15</text><line x1="1328.0" y1="829.0" x2="1337.0" y2="829.0" stroke="#555" stroke-width="2" stroke-linecap="round"/><text x="1344.0" y="833.0" font-family="Menlo, Consolas, monospace" font-size="11" fill="#222" text-anchor="start" font-weight="bold">16</text><line x1="28.0" y1="948.0" x2="1594.0" y2="948.0" stroke="#c9c9c9" stroke-width="1" stroke-linecap="round"/><text x="28.0" y="964.0" font-family="Helvetica Neue, Helvetica, Arial, sans-serif" font-size="10" fill="#8a8a8a" text-anchor="start" font-weight="normal">Every conductor crimp-to-crimp, no splices · one wire per contact · Y-fork + leg lengths TBD at enclosure CAD · positions from TE STEP c-hd34-18-20pn-f1-3d.stp</text><text x="28.0" y="980.0" font-family="Helvetica Neue, Helvetica, Arial, sans-serif" font-size="10" fill="#8a8a8a" text-anchor="start" font-weight="normal">Wire table: internal-wiring-definition.md (2026-08-22) · board headers vertical THT — PNs per board-connector-picks.md (pending approval)</text></svg>