<svg xmlns="http://www.w3.org/2000/svg" width="1622" height="842" viewBox="0 0 1622 842"><rect x="0" y="0" width="1622" height="842" fill="#ffffff"/><rect x="0.0" y="0.0" width="1622.0" height="78.0" rx="0" stroke="none" fill="#f2f2f0" stroke-width="1.5"/><line x1="0.0" y1="78.0" x2="1622.0" y2="78.0" stroke="#c9c9c9" stroke-width="1" stroke-linecap="round"/><text x="28.0" y="34.0" font-family="Helvetica Neue, Helvetica, Arial, sans-serif" font-size="21" fill="#1a1a1a" text-anchor="start" font-weight="bold" letter-spacing="0.5">ROOF — HD34-18-14PE · internal Y-split pigtail</text><text x="28.0" y="58.0" font-family="Helvetica Neue, Helvetica, Arial, sans-serif" font-size="12.5" fill="#555" text-anchor="start" font-weight="normal">insert 18-14 · 14× size 16 · E seal (blue) · cavity IDs per TE 0425-013-1800 rev D</text><text x="1594.0" y="34.0" font-family="Helvetica Neue, Helvetica, Arial, sans-serif" font-size="13" fill="#444" text-anchor="end" font-weight="bold">Crewline V3.2 enclosure</text><text x="1594.0" y="56.0" font-family="Helvetica Neue, Helvetica, Arial, sans-serif" font-size="12" fill="#666" text-anchor="end" font-weight="normal">2026-08-22</text><text x="178.0" y="148.0" font-family="Helvetica Neue, Helvetica, Arial, sans-serif" font-size="12" fill="#444" text-anchor="middle" font-weight="bold">REAR VIEW (wire side)</text><circle cx="178.0" cy="273.5" r="109.5" stroke="#9a9a9a" fill="#fbfbfa" stroke-width="2.2"/><circle cx="178.0" cy="273.5" r="97.5" stroke="#c0c0c0" fill="#ffffff" stroke-width="1.2"/><circle cx="178.0" cy="196.1" r="18.1" stroke="#8a8a8a" fill="#f1f1ee" stroke-width="1.7"/><circle cx="178.0" cy="196.1" r="6.6" stroke="#c9c9c9" fill="none" stroke-width="1.0"/><text x="178.0" y="201.4" font-family="Helvetica Neue, Helvetica, Arial, sans-serif" font-size="14.5" fill="#8a8a8a" text-anchor="middle" font-weight="bold">P</text><circle cx="132.5" cy="210.9" r="18.1" stroke="#1a1a1a" fill="#ffffff" stroke-width="1.7"/><circle cx="132.5" cy="210.9" r="6.6" stroke="#999" fill="none" stroke-width="1.0"/><text x="132.5" y="216.1" font-family="Helvetica Neue, Helvetica, Arial, sans-serif" font-size="14.5" fill="#1a1a1a" text-anchor="middle" font-weight="bold">E</text><circle cx="223.5" cy="210.9" r="18.1" stroke="#1a1a1a" fill="#ffffff" stroke-width="1.7"/><circle cx="223.5" cy="210.9" r="6.6" stroke="#999" fill="none" stroke-width="1.0"/><text x="223.5" y="216.1" font-family="Helvetica Neue, Helvetica, Arial, sans-serif" font-size="14.5" fill="#1a1a1a" text-anchor="middle" font-weight="bold">N</text><circle cx="178.0" cy="242.2" r="18.1" stroke="#1a1a1a" fill="#ffffff" stroke-width="1.7"/><circle cx="178.0" cy="242.2" r="6.6" stroke="#999" fill="none" stroke-width="1.0"/><text x="178.0" y="247.4" font-family="Helvetica Neue, Helvetica, Arial, sans-serif" font-size="14.5" fill="#1a1a1a" text-anchor="middle" font-weight="bold">D</text><circle cx="104.5" cy="249.6" r="18.1" stroke="#1a1a1a" fill="#ffffff" stroke-width="1.7"/><circle cx="104.5" cy="249.6" r="6.6" stroke="#999" fill="none" stroke-width="1.0"/><text x="104.5" y="254.8" font-family="Helvetica Neue, Helvetica, Arial, sans-serif" font-size="14.5" fill="#1a1a1a" text-anchor="middle" font-weight="bold">F</text><circle cx="251.5" cy="249.6" r="18.1" stroke="#1a1a1a" fill="#ffffff" stroke-width="1.7"/><circle cx="251.5" cy="249.6" r="6.6" stroke="#999" fill="none" stroke-width="1.0"/><text x="251.5" y="254.8" font-family="Helvetica Neue, Helvetica, Arial, sans-serif" font-size="14.5" fill="#1a1a1a" text-anchor="middle" font-weight="bold">M</text><circle cx="143.9" cy="273.5" r="18.1" stroke="#1a1a1a" fill="#ffffff" stroke-width="1.7"/><circle cx="143.9" cy="273.5" r="6.6" stroke="#999" fill="none" stroke-width="1.0"/><text x="143.9" y="278.7" font-family="Helvetica Neue, Helvetica, Arial, sans-serif" font-size="14.5" fill="#1a1a1a" text-anchor="middle" font-weight="bold">A</text><circle cx="212.1" cy="273.5" r="18.1" stroke="#1a1a1a" fill="#ffffff" stroke-width="1.7"/><circle cx="212.1" cy="273.5" r="6.6" stroke="#999" fill="none" stroke-width="1.0"/><text x="212.1" y="278.7" font-family="Helvetica Neue, Helvetica, Arial, sans-serif" font-size="14.5" fill="#1a1a1a" text-anchor="middle" font-weight="bold">C</text><circle cx="104.5" cy="297.4" r="18.1" stroke="#1a1a1a" fill="#ffffff" stroke-width="1.7"/><circle cx="104.5" cy="297.4" r="6.6" stroke="#999" fill="none" stroke-width="1.0"/><text x="104.5" y="302.6" font-family="Helvetica Neue, Helvetica, Arial, sans-serif" font-size="14.5" fill="#1a1a1a" text-anchor="middle" font-weight="bold">G</text><circle cx="251.5" cy="297.4" r="18.1" stroke="#1a1a1a" fill="#ffffff" stroke-width="1.7"/><circle cx="251.5" cy="297.4" r="6.6" stroke="#999" fill="none" stroke-width="1.0"/><text x="251.5" y="302.6" font-family="Helvetica Neue, Helvetica, Arial, sans-serif" font-size="14.5" fill="#1a1a1a" text-anchor="middle" font-weight="bold">L</text><circle cx="178.0" cy="304.7" r="18.1" stroke="#1a1a1a" fill="#ffffff" stroke-width="1.7"/><circle cx="178.0" cy="304.7" r="6.6" stroke="#999" fill="none" stroke-width="1.0"/><text x="178.0" y="310.0" font-family="Helvetica Neue, Helvetica, Arial, sans-serif" font-size="14.5" fill="#1a1a1a" text-anchor="middle" font-weight="bold">B</text><circle cx="132.5" cy="336.0" r="18.1" stroke="#1a1a1a" fill="#ffffff" stroke-width="1.7"/><circle cx="132.5" cy="336.0" r="6.6" stroke="#999" fill="none" stroke-width="1.0"/><text x="132.5" y="341.2" font-family="Helvetica Neue, Helvetica, Arial, sans-serif" font-size="14.5" fill="#1a1a1a" text-anchor="middle" font-weight="bold">H</text><circle cx="223.5" cy="336.0" r="18.1" stroke="#1a1a1a" fill="#ffffff" stroke-width="1.7"/><circle cx="223.5" cy="336.0" r="6.6" stroke="#999" fill="none" stroke-width="1.0"/><text x="223.5" y="341.2" font-family="Helvetica Neue, Helvetica, Arial, sans-serif" font-size="14.5" fill="#1a1a1a" text-anchor="middle" font-weight="bold">K</text><circle cx="178.0" cy="350.8" r="18.1" stroke="#1a1a1a" fill="#ffffff" stroke-width="1.7"/><circle cx="178.0" cy="350.8" r="6.6" stroke="#999" fill="none" stroke-width="1.0"/><text x="178.0" y="356.0" font-family="Helvetica Neue, Helvetica, Arial, sans-serif" font-size="14.5" fill="#1a1a1a" text-anchor="middle" font-weight="bold">J</text><text x="178.0" y="402.9" font-family="Helvetica Neue, Helvetica, Arial, sans-serif" font-size="10.5" fill="#8a8a8a" text-anchor="middle" font-weight="normal">as seen from inside enclosure</text><text x="64.0" y="430.9" font-family="Helvetica Neue, Helvetica, Arial, sans-serif" font-size="11" fill="#444" text-anchor="start" font-weight="bold" letter-spacing="1">LEGEND</text><line x1="64.0" y1="446.9" x2="96.0" y2="446.9" stroke="#c62828" stroke-width="3" stroke-linecap="round"/><text x="104.0" y="450.9" font-family="Helvetica Neue, Helvetica, Arial, sans-serif" font-size="11" fill="#333" text-anchor="start" font-weight="normal">power +13 V / BAT+</text><line x1="64.0" y1="465.9" x2="96.0" y2="465.9" stroke="#7b1fa2" stroke-width="3" stroke-linecap="round"/><text x="104.0" y="469.9" font-family="Helvetica Neue, Helvetica, Arial, sans-serif" font-size="11" fill="#333" text-anchor="start" font-weight="normal">safety chain</text><line x1="64.0" y1="484.9" x2="96.0" y2="484.9" stroke="#212121" stroke-width="3" stroke-linecap="round"/><text x="104.0" y="488.9" font-family="Helvetica Neue, Helvetica, Arial, sans-serif" font-size="11" fill="#333" text-anchor="start" font-weight="normal">ground / return</text><line x1="64.0" y1="503.9" x2="96.0" y2="503.9" stroke="#c8901c" stroke-width="3" stroke-linecap="round"/><text x="104.0" y="507.9" font-family="Helvetica Neue, Helvetica, Arial, sans-serif" font-size="11" fill="#333" text-anchor="start" font-weight="normal">CAN H</text><line x1="64.0" y1="522.9" x2="96.0" y2="522.9" stroke="#2e7d32" stroke-width="3" stroke-linecap="round"/><text x="104.0" y="526.9" font-family="Helvetica Neue, Helvetica, Arial, sans-serif" font-size="11" fill="#333" text-anchor="start" font-weight="normal">CAN L</text><line x1="64.0" y1="541.9" x2="96.0" y2="541.9" stroke="#b5b5b5" stroke-width="3" stroke-linecap="round"/><text x="104.0" y="545.9" font-family="Helvetica Neue, Helvetica, Arial, sans-serif" font-size="11" fill="#333" text-anchor="start" font-weight="normal">spare (plugged)</text><line x1="636.0" y1="313.0" x2="636.0" y2="481.0" stroke="#444" stroke-width="2.2" stroke-linecap="round"/><line x1="641.0" y1="313.0" x2="641.0" y2="481.0" stroke="#444" stroke-width="2.2" stroke-linecap="round"/><text x="618.0" y="303.0" font-family="Helvetica Neue, Helvetica, Arial, sans-serif" font-size="11.5" fill="#444" text-anchor="middle" font-weight="bold">Y-fork</text><rect x="372.0" y="151.0" width="52.0" height="22.0" rx="4" stroke="#888" fill="#fff" stroke-width="1.2"/><text x="398.0" y="166.0" font-family="Menlo, Consolas, monospace" font-size="12" fill="#1a1a1a" text-anchor="middle" font-weight="bold">A</text><path d="M 424 162 C 470 162 510 319.0 596 319.0 L 640 319.0 C 685 319.0 705 162 745 162 L 1330 162" stroke="#c62828" stroke-width="2.0" fill="none" stroke-linecap="round" stroke-linejoin="round"/><text x="770.0" y="156.0" font-family="Helvetica Neue, Helvetica, Arial, sans-serif" font-size="11.5" fill="#333" text-anchor="start" font-weight="normal">STARLINK_13V (FH4 5A) · 16 AWG</text><rect x="372.0" y="181.0" width="52.0" height="22.0" rx="4" stroke="#888" fill="#fff" stroke-width="1.2"/><text x="398.0" y="196.0" font-family="Menlo, Consolas, monospace" font-size="12" fill="#1a1a1a" text-anchor="middle" font-weight="bold">C</text><path d="M 424 192 C 470 192 510 332.0 596 332.0 L 640 332.0 C 685 332.0 705 192 745 192 L 1330 192" stroke="#c62828" stroke-width="2.0" fill="none" stroke-linecap="round" stroke-linejoin="round"/><text x="770.0" y="186.0" font-family="Helvetica Neue, Helvetica, Arial, sans-serif" font-size="11.5" fill="#333" text-anchor="start" font-weight="normal">LIDAR_13V (FH7 AUX 5A) · 16 AWG</text><rect x="372.0" y="211.0" width="52.0" height="22.0" rx="4" stroke="#888" fill="#fff" stroke-width="1.2"/><text x="398.0" y="226.0" font-family="Menlo, Consolas, monospace" font-size="12" fill="#1a1a1a" text-anchor="middle" font-weight="bold">E</text><path d="M 424 222 C 470 222 510 345.0 596 345.0 L 640 345.0 C 685 345.0 705 222 745 222 L 1330 222" stroke="#c62828" stroke-width="2.0" fill="none" stroke-linecap="round" stroke-linejoin="round"/><text x="770.0" y="216.0" font-family="Helvetica Neue, Helvetica, Arial, sans-serif" font-size="11.5" fill="#333" text-anchor="start" font-weight="normal">BCN_13V (FH5·K53 5A) · 16 AWG</text><rect x="372.0" y="241.0" width="52.0" height="22.0" rx="4" stroke="#888" fill="#fff" stroke-width="1.2"/><text x="398.0" y="256.0" font-family="Menlo, Consolas, monospace" font-size="12" fill="#1a1a1a" text-anchor="middle" font-weight="bold">M</text><path d="M 424 252 C 470 252 510 358.0 596 358.0 L 640 358.0 C 685 358.0 705 252 745 252 L 1330 252" stroke="#c62828" stroke-width="2.0" fill="none" stroke-linecap="round" stroke-linejoin="round"/><text x="770.0" y="246.0" font-family="Helvetica Neue, Helvetica, Arial, sans-serif" font-size="11.5" fill="#333" text-anchor="start" font-weight="normal">SPARE_13V (FH8 7.5A) · 16 AWG</text><rect x="372.0" y="271.0" width="52.0" height="22.0" rx="4" stroke="#888" fill="#fff" stroke-width="1.2"/><text x="398.0" y="286.0" font-family="Menlo, Consolas, monospace" font-size="12" fill="#1a1a1a" text-anchor="middle" font-weight="bold">J</text><path d="M 424 282 C 470 282 510 371.0 596 371.0 L 640 371.0 C 685 371.0 705 282 745 282 L 1330 282" stroke="#7b1fa2" stroke-width="2.0" fill="none" stroke-linecap="round" stroke-linejoin="round"/><text x="770.0" y="276.0" font-family="Helvetica Neue, Helvetica, Arial, sans-serif" font-size="11.5" fill="#8a1010" text-anchor="start" font-weight="normal">ES_RX (ALWAYS-ON) · 18 AWG</text><rect x="372.0" y="301.0" width="52.0" height="22.0" rx="4" stroke="#888" fill="#fff" stroke-width="1.2"/><text x="398.0" y="316.0" font-family="Menlo, Consolas, monospace" font-size="12" fill="#1a1a1a" text-anchor="middle" font-weight="bold">K</text><path d="M 424 312 C 470 312 510 384.0 596 384.0 L 640 384.0 C 685 384.0 705 312 745 312 L 1330 312" stroke="#7b1fa2" stroke-width="2.0" fill="none" stroke-linecap="round" stroke-linejoin="round"/><text x="770.0" y="306.0" font-family="Helvetica Neue, Helvetica, Arial, sans-serif" font-size="11.5" fill="#333" text-anchor="start" font-weight="normal">RX_STAT · 20 AWG</text><rect x="372.0" y="331.0" width="52.0" height="22.0" rx="4" stroke="#888" fill="#fff" stroke-width="1.2"/><text x="398.0" y="346.0" font-family="Menlo, Consolas, monospace" font-size="12" fill="#1a1a1a" text-anchor="middle" font-weight="bold">B</text><path d="M 424 342 C 470 342 510 397.0 596 397.0 L 640 397.0 C 685 397.0 705 342 745 342 L 1330 342" stroke="#212121" stroke-width="2.0" fill="none" stroke-linecap="round" stroke-linejoin="round"/><text x="770.0" y="336.0" font-family="Helvetica Neue, Helvetica, Arial, sans-serif" font-size="11.5" fill="#333" text-anchor="start" font-weight="normal">STARLINK_GND · 16 AWG</text><rect x="372.0" y="361.0" width="52.0" height="22.0" rx="4" stroke="#888" fill="#fff" stroke-width="1.2"/><text x="398.0" y="376.0" font-family="Menlo, Consolas, monospace" font-size="12" fill="#1a1a1a" text-anchor="middle" font-weight="bold">D</text><path d="M 424 372 C 470 372 510 410.0 596 410.0 L 640 410.0 C 685 410.0 705 372 745 372 L 1330 372" stroke="#212121" stroke-width="2.0" fill="none" stroke-linecap="round" stroke-linejoin="round"/><text x="770.0" y="366.0" font-family="Helvetica Neue, Helvetica, Arial, sans-serif" font-size="11.5" fill="#333" text-anchor="start" font-weight="normal">LIDAR_GND · 16 AWG</text><rect x="372.0" y="391.0" width="52.0" height="22.0" rx="4" stroke="#888" fill="#fff" stroke-width="1.2"/><text x="398.0" y="406.0" font-family="Menlo, Consolas, monospace" font-size="12" fill="#1a1a1a" text-anchor="middle" font-weight="bold">F</text><path d="M 424 402 C 470 402 510 423.0 596 423.0 L 640 423.0 C 685 423.0 705 402 745 402 L 1330 402" stroke="#212121" stroke-width="2.0" fill="none" stroke-linecap="round" stroke-linejoin="round"/><text x="770.0" y="396.0" font-family="Helvetica Neue, Helvetica, Arial, sans-serif" font-size="11.5" fill="#333" text-anchor="start" font-weight="normal">BCN_GND · 16 AWG</text><rect x="372.0" y="421.0" width="52.0" height="22.0" rx="4" stroke="#888" fill="#fff" stroke-width="1.2"/><text x="398.0" y="436.0" font-family="Menlo, Consolas, monospace" font-size="12" fill="#1a1a1a" text-anchor="middle" font-weight="bold">N</text><path d="M 424 432 C 470 432 510 436.0 596 436.0 L 640 436.0 C 685 436.0 705 432 745 432 L 1330 432" stroke="#212121" stroke-width="2.0" fill="none" stroke-linecap="round" stroke-linejoin="round"/><text x="770.0" y="426.0" font-family="Helvetica Neue, Helvetica, Arial, sans-serif" font-size="11.5" fill="#333" text-anchor="start" font-weight="normal">SPARE_GND · 16 AWG</text><rect x="372.0" y="451.0" width="52.0" height="22.0" rx="4" stroke="#888" fill="#fff" stroke-width="1.2"/><text x="398.0" y="466.0" font-family="Menlo, Consolas, monospace" font-size="12" fill="#1a1a1a" text-anchor="middle" font-weight="bold">L</text><path d="M 424 462 C 470 462 510 449.0 596 449.0 L 640 449.0 C 685 449.0 705 462 745 462 L 1330 462" stroke="#212121" stroke-width="2.0" fill="none" stroke-linecap="round" stroke-linejoin="round"/><text x="770.0" y="456.0" font-family="Helvetica Neue, Helvetica, Arial, sans-serif" font-size="11.5" fill="#333" text-anchor="start" font-weight="normal">RX_GND · 18 AWG</text><rect x="372.0" y="591.0" width="52.0" height="22.0" rx="4" stroke="#888" fill="#fff" stroke-width="1.2"/><text x="398.0" y="606.0" font-family="Menlo, Consolas, monospace" font-size="12" fill="#1a1a1a" text-anchor="middle" font-weight="bold">G</text><path d="M 424 602 C 470 602 510 462.0 596 462.0 L 640 462.0 C 685 462.0 705 602 745 602 L 998 602" stroke="#c8901c" stroke-width="2.0" fill="none" stroke-linecap="round" stroke-linejoin="round"/><text x="770.0" y="596.0" font-family="Helvetica Neue, Helvetica, Arial, sans-serif" font-size="11.5" fill="#333" text-anchor="start" font-weight="normal">LIDAR_CAN_H · 20 AWG (tw)</text><rect x="372.0" y="621.0" width="52.0" height="22.0" rx="4" stroke="#888" fill="#fff" stroke-width="1.2"/><text x="398.0" y="636.0" font-family="Menlo, Consolas, monospace" font-size="12" fill="#1a1a1a" text-anchor="middle" font-weight="bold">H</text><path d="M 424 632 C 470 632 510 475.0 596 475.0 L 640 475.0 C 685 475.0 705 632 745 632 L 998 632" stroke="#2e7d32" stroke-width="2.0" fill="none" stroke-linecap="round" stroke-linejoin="round"/><text x="770.0" y="626.0" font-family="Helvetica Neue, Helvetica, Arial, sans-serif" font-size="11.5" fill="#333" text-anchor="start" font-weight="normal">LIDAR_CAN_L · 20 AWG (tw)</text><path d="M 998 602 C 1053.3333333333333 602 1053.3333333333333 632 1108.6666666666667 632 C 1164.0 632 1164.0 602 1219.3333333333333 602 L 1330 602" stroke="#c8901c" stroke-width="2.0" fill="none" stroke-linecap="round" stroke-linejoin="round"/><path d="M 998 632 C 1053.3333333333333 632 1053.3333333333333 602 1108.6666666666667 602 C 1164.0 602 1164.0 632 1219.3333333333333 632 L 1330 632" stroke="#2e7d32" stroke-width="2.0" fill="none" stroke-linecap="round" stroke-linejoin="round"/><text x="1108.7" y="620.5" font-family="Helvetica Neue, Helvetica, Arial, sans-serif" font-size="9" fill="#8a8a8a" text-anchor="middle" font-weight="normal">tw</text><text x="751.0" y="136.0" font-family="Helvetica Neue, Helvetica, Arial, sans-serif" font-size="12.5" fill="#7a1414" text-anchor="start" font-weight="bold" letter-spacing="1">POWER LEG</text><text x="751.0" y="576.0" font-family="Helvetica Neue, Helvetica, Arial, sans-serif" font-size="12.5" fill="#3a3a6a" text-anchor="start" font-weight="bold" letter-spacing="1">SIGNAL LEG</text><rect x="1330.0" y="104.0" width="262.0" height="404.0" rx="8" stroke="#555" fill="#fafaf8" stroke-width="1.8"/><text x="1342.0" y="126.0" font-family="Helvetica Neue, Helvetica, Arial, sans-serif" font-size="12.5" fill="#1a1a1a" text-anchor="start" font-weight="bold">J_RP · Mini-Fit Jr 12</text><text x="1342.0" y="144.0" font-family="Helvetica Neue, Helvetica, Arial, sans-serif" font-size="10" fill="#666" text-anchor="start" font-weight="normal">PWR board · mate 39-01-2120</text><text x="1342.0" y="488.0" font-family="Helvetica Neue, Helvetica, Arial, sans-serif" font-size="9.5" fill="#8a8a8a" text-anchor="start" font-weight="normal">pin 12 spare</text><text x="1342.0" y="501.0" font-family="Helvetica Neue, Helvetica, Arial, sans-serif" font-size="9.5" fill="#8a1010" text-anchor="start" font-weight="normal">pin 5 live with master switch OFF</text><line x1="1328.0" y1="162.0" x2="1337.0" y2="162.0" stroke="#555" stroke-width="2" stroke-linecap="round"/><text x="1344.0" y="166.0" font-family="Menlo, Consolas, monospace" font-size="11" fill="#222" text-anchor="start" font-weight="bold">1</text><line x1="1328.0" y1="192.0" x2="1337.0" y2="192.0" stroke="#555" stroke-width="2" stroke-linecap="round"/><text x="1344.0" y="196.0" font-family="Menlo, Consolas, monospace" font-size="11" fill="#222" text-anchor="start" font-weight="bold">2</text><line x1="1328.0" y1="222.0" x2="1337.0" y2="222.0" stroke="#555" stroke-width="2" stroke-linecap="round"/><text x="1344.0" y="226.0" font-family="Menlo, Consolas, monospace" font-size="11" fill="#222" text-anchor="start" font-weight="bold">3</text><line x1="1328.0" y1="252.0" x2="1337.0" y2="252.0" stroke="#555" stroke-width="2" stroke-linecap="round"/><text x="1344.0" y="256.0" font-family="Menlo, Consolas, monospace" font-size="11" fill="#222" text-anchor="start" font-weight="bold">4</text><line x1="1328.0" y1="282.0" x2="1337.0" y2="282.0" stroke="#555" stroke-width="2" stroke-linecap="round"/><text x="1344.0" y="286.0" font-family="Menlo, Consolas, monospace" font-size="11" fill="#222" text-anchor="start" font-weight="bold">5</text><line x1="1328.0" y1="312.0" x2="1337.0" y2="312.0" stroke="#555" stroke-width="2" stroke-linecap="round"/><text x="1344.0" y="316.0" font-family="Menlo, Consolas, monospace" font-size="11" fill="#222" text-anchor="start" font-weight="bold">6</text><line x1="1328.0" y1="342.0" x2="1337.0" y2="342.0" stroke="#555" stroke-width="2" stroke-linecap="round"/><text x="1344.0" y="346.0" font-family="Menlo, Consolas, monospace" font-size="11" fill="#222" text-anchor="start" font-weight="bold">7</text><line x1="1328.0" y1="372.0" x2="1337.0" y2="372.0" stroke="#555" stroke-width="2" stroke-linecap="round"/><text x="1344.0" y="376.0" font-family="Menlo, Consolas, monospace" font-size="11" fill="#222" text-anchor="start" font-weight="bold">8</text><line x1="1328.0" y1="402.0" x2="1337.0" y2="402.0" stroke="#555" stroke-width="2" stroke-linecap="round"/><text x="1344.0" y="406.0" font-family="Menlo, Consolas, monospace" font-size="11" fill="#222" text-anchor="start" font-weight="bold">9</text><line x1="1328.0" y1="432.0" x2="1337.0" y2="432.0" stroke="#555" stroke-width="2" stroke-linecap="round"/><text x="1344.0" y="436.0" font-family="Menlo, Consolas, monospace" font-size="11" fill="#222" text-anchor="start" font-weight="bold">10</text><line x1="1328.0" y1="462.0" x2="1337.0" y2="462.0" stroke="#555" stroke-width="2" stroke-linecap="round"/><text x="1344.0" y="466.0" font-family="Menlo, Consolas, monospace" font-size="11" fill="#222" text-anchor="start" font-weight="bold">11</text><rect x="1330.0" y="544.0" width="262.0" height="134.0" rx="8" stroke="#555" fill="#fafaf8" stroke-width="1.8"/><text x="1342.0" y="566.0" font-family="Helvetica Neue, Helvetica, Arial, sans-serif" font-size="12.5" fill="#1a1a1a" text-anchor="start" font-weight="bold">J_RS · Micro-Fit 4</text><text x="1342.0" y="584.0" font-family="Helvetica Neue, Helvetica, Arial, sans-serif" font-size="10" fill="#666" text-anchor="start" font-weight="normal">IFB · mate 43025-0400</text><text x="1342.0" y="658.0" font-family="Helvetica Neue, Helvetica, Arial, sans-serif" font-size="9.5" fill="#8a8a8a" text-anchor="start" font-weight="normal">pin 4 spare</text><text x="1342.0" y="671.0" font-family="Helvetica Neue, Helvetica, Arial, sans-serif" font-size="9.5" fill="#8a8a8a" text-anchor="start" font-weight="normal">pin 3 = SIG_GND/drain (CAN stub ref, no panel cavity)</text><line x1="1328.0" y1="602.0" x2="1337.0" y2="602.0" stroke="#555" stroke-width="2" stroke-linecap="round"/><text x="1344.0" y="606.0" font-family="Menlo, Consolas, monospace" font-size="11" fill="#222" text-anchor="start" font-weight="bold">1</text><line x1="1328.0" y1="632.0" x2="1337.0" y2="632.0" stroke="#555" stroke-width="2" stroke-linecap="round"/><text x="1344.0" y="636.0" font-family="Menlo, Consolas, monospace" font-size="11" fill="#222" text-anchor="start" font-weight="bold">2</text><rect x="372.0" y="701.0" width="52.0" height="22.0" rx="4" stroke="#b5b5b5" fill="#f7f7f5" stroke-width="1.1"/><text x="398.0" y="716.0" font-family="Menlo, Consolas, monospace" font-size="12" fill="#8a8a8a" text-anchor="middle" font-weight="bold">P</text><text x="440.0" y="716.0" font-family="Helvetica Neue, Helvetica, Arial, sans-serif" font-size="10.5" fill="#8a8a8a" text-anchor="start" font-weight="normal">spare (plugged) — no wire</text><line x1="28.0" y1="788.0" x2="1594.0" y2="788.0" stroke="#c9c9c9" stroke-width="1" stroke-linecap="round"/><text x="28.0" y="804.0" font-family="Helvetica Neue, Helvetica, Arial, sans-serif" font-size="10" fill="#8a8a8a" text-anchor="start" font-weight="normal">Every conductor crimp-to-crimp, no splices · one wire per contact · Y-fork + leg lengths TBD at enclosure CAD · positions from TE STEP c-hd34-18-14pe-b-3d.stp</text><text x="28.0" y="820.0" font-family="Helvetica Neue, Helvetica, Arial, sans-serif" font-size="10" fill="#8a8a8a" text-anchor="start" font-weight="normal">Wire table: internal-wiring-definition.md (2026-08-22) · board headers vertical THT — PNs per board-connector-picks.md (pending approval)</text></svg>